<svg id="Layer_1" data-name="Layer 1" xmlns="http://www.w3.org/2000/svg" viewBox="0 0 547.57 399.04"><defs><style>.cls-1{fill:#fefefe;}.cls-2{fill:#f2f2f2;}.cls-3{fill:#ccc;}.cls-4{fill:#e6e6e6;}.cls-5{fill:#b3b3b3;}.cls-6{fill:#515151;}.cls-10,.cls-7,.cls-9{fill:#fff;}.cls-10,.cls-7,.cls-8{stroke:#000;}.cls-11,.cls-7,.cls-8{stroke-linecap:round;stroke-linejoin:round;}.cls-7,.cls-8{stroke-width:8px;}.cls-8{fill:none;}.cls-10{stroke-miterlimit:10;stroke-width:5px;}.cls-11{fill:#900;stroke:#fc0;stroke-width:4px;}</style></defs><title>logo</title><g id="laptop"><path class="cls-1" d="M137.68,503.34V126.74h376.6v376.6H137.68Z" transform="translate(-137.68 -104.3)"/><path class="cls-2" d="M356.77,286.48a2.55,2.55,0,0,0,1.77,1.58c3.88,1.24,7.73,2.55,11.62,3.76s7.52,2.53,11.29,3.77c4.81,1.58,9.64,3.11,14.46,4.68,6.85,2.24,13.69,4.51,20.54,6.75,3.43,1.12,6.88,2.16,10.3,3.28,3.92,1.28,7.82,2.62,11.74,3.9q11.91,3.89,23.84,7.75a3,3,0,0,1,1.75,1c-0.87,1.81-2.53,2.9-3.95,4.16q-8.39,7.42-16.67,14.95c-5.66,5.11-11.35,10.19-17,15.29s-11.17,10.06-16.79,15.06c-4.53,4-9,8.12-13.5,12.15-5.49,4.9-11,9.84-16.45,14.73-4.52,4-9,8.11-13.54,12.12-5.79,5.12-11.41,10.42-17.24,15.49-3.5,3-6.93,6.2-10.36,9.32-4.29,3.9-8.67,7.69-12.92,11.63a3.33,3.33,0,0,1-1.72.65c-3.75-.78-7.28-2.24-10.91-3.39-8.81-2.79-17.58-5.73-26.37-8.59-9.19-3-18.36-6.05-27.55-9-11.88-3.84-23.72-7.8-35.6-11.62-1.74-.56-3.5-1-5.19-1.75a1.56,1.56,0,0,1-1.19-1.11,4.64,4.64,0,0,1,1.59-2.43q10.78-9.69,21.57-19.37,9.26-8.33,18.53-16.65,13.79-12.33,27.53-24.71c7.27-6.53,14.51-13.09,21.81-19.58,9-8,17.86-16.07,26.84-24.06,6.4-5.7,12.73-11.47,19.21-17.07C355.09,288.27,355.62,287.06,356.77,286.48Z" transform="translate(-137.68 -104.3)"/><path d="M356.77,286.48a1.83,1.83,0,0,1-.65,1.8q-5.68,5-11.33,10.1-5,4.44-9.89,8.89l-10.12,9.1q-5.17,4.65-10.35,9.31c-4.39,3.93-8.8,7.83-13.18,11.77-3.88,3.48-7.72,7-11.6,10.48-4.35,3.9-8.73,7.76-13.07,11.66-3.88,3.48-7.73,7-11.61,10.49-3.26,2.93-6.54,5.84-9.81,8.76-3.42,3.06-6.82,6.15-10.24,9.21l-9.8,8.76L225,405.89l-7.59,6.77c-1.31,0-1.21-1.12-1.39-1.9-0.93-4.24-1.8-8.49-2.7-12.73-4.82-22.75-9.56-45.52-14.4-68.27q-2.54-12-5-23.93a6.22,6.22,0,0,1-.23-3.09c0.13-1.18,1.1-1.74,1.85-2.42,5-4.63,10.2-9.13,15.28-13.71,5.47-4.93,11-9.82,16.46-14.73q6.49-5.8,12.94-11.63,8.92-8,17.84-16,8-7.23,16.1-14.45l20-17.88q9.1-8.16,18.18-16.35c6.47-5.85,12.95-11.69,19.51-17.43,0.6-.52,1.21-1,2.06-0.49,0.76,3.73,1.51,7.46,2.3,11.18q4.16,19.75,8.34,39.49,4.52,21.43,9,42.86c1,4.8,2,9.6,3,14.4C356.56,285.88,356.68,286.18,356.77,286.48Z" transform="translate(-137.68 -104.3)"/><path class="cls-3" d="M194.15,302.48a17,17,0,0,0,.73,4.31q4.64,22.21,9.35,44.41l11.2,53c0.53,2.5,1,5,1.57,7.51a1.34,1.34,0,0,0,.39,1,8.22,8.22,0,0,0,3.27,1.4c4.56,1.53,9.13,3,13.7,4.49l13.12,4.27,14.75,4.82L284,434.73l25.92,8.49c4.72,1.54,9.44,3.05,14.16,4.58a1.94,1.94,0,0,1,1.23,1.47c0.3,1.36.69,2.69,0.87,4.07,0.09,0.73.09,1.45-.84,1.69L304,448.11Q291.51,444,279,440c-6.06-2-12.11-4-18.16-6S248.6,430,242.49,428c-5.46-1.79-10.91-3.62-16.37-5.42-4.17-1.37-8.33-2.77-12.53-4a3.06,3.06,0,0,1-2.39-2.67c-1.22-6.2-2.56-12.38-3.86-18.56s-2.55-12.17-3.84-18.25c-1.35-6.33-2.73-12.66-4.08-19q-1.89-8.89-3.75-17.78t-3.77-17.94c-1.36-6.49-2.69-13-4.05-19.48a30.88,30.88,0,0,1-.88-4.29,1.24,1.24,0,0,1,.69-0.33A11,11,0,0,1,194.15,302.48Z" transform="translate(-137.68 -104.3)"/><path class="cls-4" d="M194.15,302.48a8.65,8.65,0,0,1-3.46-.82,19.32,19.32,0,0,0-3.73-1.05,12.32,12.32,0,0,1,2.25-2.39c3.46-3.1,7-6.15,10.42-9.25,2.53-2.26,5-4.58,7.54-6.84s5.15-4.58,7.73-6.86c1.29-1.14,2.5-2.37,3.81-3.49,2.58-2.2,5-4.57,7.54-6.83,3.35-3,6.74-5.93,10.09-8.92,1.29-1.15,2.52-2.35,3.82-3.49,4-3.54,8-7.15,12-10.75,2.52-2.27,5-4.59,7.53-6.85s5.17-4.56,7.73-6.85,4.86-4.43,7.31-6.63,4.86-4.27,7.27-6.43c1.91-1.71,3.79-3.44,5.67-5.17,3-2.79,6.15-5.5,9.27-8.19,1.34-1.16,2.61-2.41,3.94-3.58,4-3.49,7.87-7,11.79-10.54,2.6-2.34,5.16-4.73,7.75-7.07,1.78-1.61,3.6-3.18,5.39-4.77a1.52,1.52,0,0,1,1.57-.45c2,0.66,4,1.33,5.94,2a1.68,1.68,0,0,1,.46.4,0.77,0.77,0,0,0-.8.35l-10.49,9.4-12,10.75-11.17,10-11.75,10.56q-7.38,6.64-14.76,13.28c-4,3.55-7.94,7.07-11.91,10.62-3.77,3.37-7.52,6.77-11.29,10.15q-6.7,6-13.4,12-7.33,6.59-14.65,13.21c-3.22,2.9-6.46,5.77-9.68,8.66q-5.07,4.54-10.14,9.09C199.24,298,196.69,300.23,194.15,302.48Z" transform="translate(-137.68 -104.3)"/><path class="cls-4" d="M325.36,455a1.37,1.37,0,0,0,.2-1,60.62,60.62,0,0,0-1.46-6.19,2,2,0,0,0,1-.51c1.09-1.13,2.3-2.12,3.48-3.16q4.35-3.82,8.64-7.72c2.59-2.34,5.15-4.73,7.75-7.07,2.45-2.2,4.95-4.33,7.39-6.53,2.87-2.59,5.67-5.24,8.54-7.83,3.41-3.07,6.9-6.06,10.3-9.15,2.43-2.22,5-4.29,7.35-6.58,2.14-2.06,4.44-4,6.7-5.89,1.19-1,2.29-2.13,3.48-3.16,2.65-2.27,5.17-4.71,7.77-7.05s5.15-4.57,7.73-6.86c1.13-1,2.28-2,3.39-3,3.9-3.62,7.95-7.08,11.87-10.68,2.57-2.37,5.22-4.65,7.78-7,2.4-2.24,4.91-4.37,7.38-6.53,1.14-1,2.21-2.07,3.36-3.06,2.65-2.28,5.17-4.71,7.76-7.05s5.15-4.57,7.72-6.86c1.32-1.18,2.63-2.38,4-3.57l5.62-5a2.39,2.39,0,0,1,1.08-.61c0.37,1.68.71,3.37,1.11,5.05a2.87,2.87,0,0,1-.93,3.1c-2.67,2.34-5.3,4.72-8,7.08-1.25,1.11-2.47,2.25-3.72,3.36-3.71,3.29-7.31,6.71-11,10-4.11,3.63-8.14,7.35-12.25,11s-8.14,7.34-12.25,11c-4.77,4.22-9.51,8.48-14.24,12.74q-4.54,4.08-9.09,8.16c-3.58,3.2-7.19,6.37-10.77,9.57-2.57,2.3-5.08,4.65-7.65,7s-5.08,4.5-7.62,6.75c-1.17,1-2.29,2.13-3.48,3.16-2.57,2.22-5,4.57-7.54,6.84-3.46,3.1-7,6.16-10.43,9.24-1.37,1.21-2.7,2.47-4.05,3.69l-8.4,7.52c-2.33,2.09-4.65,4.2-7,6.29C326.39,454.71,326.08,455.33,325.36,455Z" transform="translate(-137.68 -104.3)"/><path class="cls-5" d="M286.39,428.67l-1.3-.42L267.8,422.6q-9.62-3.14-19.24-6.26-8.42-2.76-16.82-5.55c-1.57-.52-1.61-0.76-0.37-1.88,4.48-4,9-8,13.45-12,2.61-2.33,5.18-4.71,7.78-7.05,3.54-3.17,7.1-6.32,10.64-9.49,2.3-2.05,4.58-4.13,6.87-6.19q7.46-6.7,14.94-13.39c4.85-4.37,9.68-8.76,14.55-13.11,4-3.56,8-7.06,11.95-10.62,2.69-2.4,5.32-4.86,8-7.27,4.4-3.94,8.82-7.85,13.22-11.79,3.73-3.35,7.44-6.72,11.17-10.08l12.93-11.64c0.27-.24.6-0.42,0.86-0.68a1.73,1.73,0,0,1,2-.33c2.27,0.78,4.56,1.53,6.85,2.27,6.51,2.12,13,4.21,19.54,6.34,5.51,1.8,11,3.65,16.53,5.46,3.48,1.14,7,2.26,10.44,3.39,0.4,0.13.8,0.25,1.19,0.4,1,0.4,1.07.59,0.22,1.35q-6.93,6.23-13.89,12.45c-2.37,2.13-4.72,4.28-7.1,6.41l-14.59,13.07L366,358l-9.91,8.9q-5.83,5.23-11.66,10.46c-3.54,3.17-7.1,6.32-10.65,9.48-2.34,2.09-4.65,4.21-7,6.3l-14.7,13.18Q307,410.92,302,415.5q-6.75,6.09-13.52,12.16A2.43,2.43,0,0,1,286.39,428.67Z" transform="translate(-137.68 -104.3)"/><path class="cls-5" d="M373.11,361.26c1.44,0.45,3,.93,4.53,1.43l15.35,5,6,1.93a5.85,5.85,0,0,1,.87.35c0.72,0.37.77,0.59,0.18,1.13q-2.7,2.51-5.44,5-3.9,3.51-7.82,7c-3.74,3.34-7.49,6.67-11.21,10-3.12,2.82-2.27,2.31-5.72,1.21-7.71-2.47-15.41-5-23.11-7.52-0.57-.19-1.43-0.17-1.59-0.83s0.65-1.11,1.13-1.55q6.09-5.53,12.23-11c4.18-3.71,8.38-7.4,12.48-11.2A2.6,2.6,0,0,1,373.11,361.26Z" transform="translate(-137.68 -104.3)"/><path class="cls-6" d="M221.33,400.27a24.09,24.09,0,0,1-1-4.21Q213,361.3,205.66,326.54c-1.4-6.65-2.77-13.31-4.24-19.94a2.49,2.49,0,0,1,.91-2.71q11.57-10.33,23.1-20.71,10.45-9.36,20.91-18.69c5.87-5.27,11.72-10.57,17.59-15.84s12-10.72,18-16.09q9.62-8.64,19.21-17.31c4.86-4.36,9.74-8.69,14.61-13q6.48-5.8,12.94-11.62a1.52,1.52,0,0,1,.86-0.52,1.8,1.8,0,0,1,.47,1.2q3.66,17.33,7.3,34.67,3.18,15.11,6.37,30.22c1.92,9.1,3.83,18.2,5.8,27.29a2.67,2.67,0,0,1-1,3c-4.52,4-9,8-13.45,12l-14.23,12.78L305.9,324.58q-8.27,7.44-16.55,14.88c-4.86,4.36-9.74,8.69-14.6,13s-9.77,8.82-14.66,13.22-9.66,8.63-14.48,13q-9.8,8.79-19.58,17.6c-1.13,1-2.24,2-3.38,3C222.27,399.65,221.83,399.91,221.33,400.27Z" transform="translate(-137.68 -104.3)"/></g><g id="horse"><path class="cls-7" d="M624.1,307.6c-2,5.3,16.7,4,13.1,10.5-4,7.2,6.7,15.4,2.8,20.2l-46.4,78.1-85.7-21-85.4-65.6-36.8-5,12.1,33.1c-4.1.9-32.3,6.7-54.7-11.8a60.89,60.89,0,0,1-17.6-24.9l35.7-30.6,62.6,5.6,81.1,37.6Z" transform="translate(-137.68 -104.3)"/><path class="cls-8" d="M362.5,292.2a29.31,29.31,0,0,0,4.6,20.6c6.6,9.7,17.9,12.5,19.7,12.8" transform="translate(-137.68 -104.3)"/><path d="M540.3,109.4c7.2,1.5,14.4,2.6,21.5,4.4,12.6,3.2,24.6,7.8,35.4,15.2a52,52,0,0,1,15.3,16.7c1.3,2.2,1.6,5.2,1.5,7.9a5.33,5.33,0,0,1-2.8,3.9,5.24,5.24,0,0,1-4.5-.9c-8.5-7.6-18.5-8.6-29.3-7.2,10.8,1.3,18.9,7.4,26.2,14.9,3.3-2.9,5.2-3,9.2-.6a87.54,87.54,0,0,1,22.9,19.5,262.43,262.43,0,0,1,27.1,38.3c9.2,16.1,12.5,33.5,11.4,51.8a117.6,117.6,0,0,1-13,47.8c-1.8,3.4-2.9,4.1-6.5,3.5-19.1-3.2-36.8.8-53.2,10.7a110.41,110.41,0,0,0-17.7,13.5c-18.6,17.2-40.5,26.6-65.4,29.3-4.7.5-9.5,0.5-14.3,0.8a12,12,0,0,0-2,.3c-4.1-.3-8.1-0.6-12.2-1-3.9-3-4-5.5-.2-8.7,1-.9,2-1.7,3-2.6,11.1-10.3,17.7-23.3,21.8-37.6,4.6-15.9,5.9-32.2,5.2-48.6-0.2-5.6-.8-11.2-1.2-17-4.8,1.2-9.1,2.4-13.3,3.5,0,8.6-1.2,11.7-6.3,18.4a65.13,65.13,0,0,0-4.3,6c-3.2,5.1-4.6,10.4-2.4,16.4,1.1,2.8,1.5,5.8,2.3,8.7,1.6,6-.3,10.8-5.2,14.5-2.4,1.8-4.6,3.9-7.2,5.4a84.42,84.42,0,0,1-13.3,6.2c-4,1.2-7.3-1.5-7.6-5.6a48,48,0,0,1,.6-10c0.4-2.8,1.3-5.6,1.9-8.3-0.3-.1-0.7-0.2-1-0.3a18.55,18.55,0,0,0-1.2,3.8c-0.6,6.1-1,12.2-1.6,18.2a16.48,16.48,0,0,1-13.3,15c-5.8,1.2-8.7-.3-10.5-6a22.13,22.13,0,0,1-1.1-5.7,19,19,0,0,0-6.1-13.2c-3.7-3.5-7.6-6.9-11.5-10.3-5.7-5-7.8-11.3-7-18.8a82.42,82.42,0,0,1,6.6-23.4c5.4-12.7,12.4-24.8,13.9-39,0.5-5.1,1.7-10.1.6-15.2-0.6-2.8-1.5-5.5-2.2-8.2-2.3-9.6-1.3-18.7,4-27.3,6.3-10.1,14.4-18.5,23-26.6a83.25,83.25,0,0,0,14.3-17c6.1-9.7,5.8-20.5,2.8-31.3-1.4-5.1-1-6.5,3.3-9.3l3.7,0.3c6.6,2.2,12.3,5.7,16.2,10.6,3.4-1.2,6.2-2.5,9.2-3.1a124.23,124.23,0,0,1,14.9-2.1c5.6-.5,11.3-0.6,16.9-0.8A24.53,24.53,0,0,1,540.3,109.4Zm-56.6,6.1c0,5.7.1,11.2-.1,16.8a32.53,32.53,0,0,1-4.3,15.2,91.86,91.86,0,0,1-19,22.7,101.24,101.24,0,0,0-19.4,22.4c-4.2,6.6-5.4,13.7-3.1,21.1,3.1,10,3.1,19.7,1,30-2.1,10.5-5.8,20.1-10.3,29.7a212.13,212.13,0,0,0-8.9,24.6c-2.2,7.1-.8,13.5,5.8,18a76.91,76.91,0,0,1,6.3,5.3c6.4,5.5,11,12,11.7,20.7,0.1,1.6.4,3.2,0.6,4.9,4.7-1,6.7-3.5,7.1-8.1,0.6-6.3.9-12.7,1.8-19,1-7.4,5.9-11,13-10,4.2,0.6,6.5,3.2,6.3,7.4a45.51,45.51,0,0,1-.9,6.3c-0.6,3.2-1.4,6.4-2.3,10.2,6.6-2.6,11.2-6.9,16.1-10.8,0.8-.6,1-2.6.8-3.8-0.8-4.1-2-8.1-3-12.1a19.6,19.6,0,0,1,.3-11.5,42.3,42.3,0,0,1,8.7-15.3,16.55,16.55,0,0,0,4.4-13.4c-0.5-4.4,1.2-6.6,5.4-7.8,6.1-1.6,12.1-3.2,18.2-4.7,3.5-.9,5.7.6,6.3,4.1,0.4,2.3.6,4.6,0.9,6.8,2.3,20.4,1.8,40.7-2.9,60.7-3.8,15.9-10.3,30.5-21.3,42.7-0.3.4-.5,0.8-0.9,1.4,1,0.1,1.6.2,2.3,0.2a124.81,124.81,0,0,0,37.8-6.3c14.1-4.8,26.2-12.7,36.9-22.9a96,96,0,0,1,29.9-19.5c13.7-5.6,28-8,42.8-6.2,2,0.2,2.9-.4,3.5-2.1,1-2.6,2.3-5.2,3.3-7.8a106.54,106.54,0,0,0,7-41.1c-0.2-10-1.8-19.8-5.8-29-7.9-18.1-19.9-33.4-32.4-48.4-1.1-1.3-2.3-2.4-3.4-3.6a26.45,26.45,0,0,0,1.4,4.5c1.3,4.6,2.6,9.1,3.5,13.8,0.6,3.2-1.1,5.7-3.5,6.4s-4.8-.4-6.4-3.1a40.67,40.67,0,0,1-3.3-6.6c-3.3-9.6-9.1-17.5-15.6-25.1-8-9.4-17.4-15.6-30.2-16-4.5-.1-9.1-1.5-13.5-2.6a13.52,13.52,0,0,1-8.4-5.6c-1.3-2-2.1-4.2-.7-6.5a5.73,5.73,0,0,1,6-2.6c1.2,0.2,2.5.4,3.7,0.5,4.1,0.2,8.3.6,12.4,0.4,9.8-.5,19.6-2.4,29.4,1.3-10.8-17.3-67.1-30.1-92.5-21.3l7.8,11.1a18.07,18.07,0,0,1,3.6,11.2c-0.2,7.7-3.8,11.2-10.9,10.3-0.6,1.2-1.2,2.5-1.9,3.7-1.8,3.2-4.6,4.4-7.2,3.3-2.8-1.2-4.1-4.4-2.9-7.9,2.9-8.3,2-16.4-.6-24.5A22.48,22.48,0,0,0,483.7,115.5Z" transform="translate(-137.68 -104.3)"/><path class="cls-9" d="M483.7,115.5A21.7,21.7,0,0,1,494,128.2c2.6,8,3.6,16.2.6,24.5-1.2,3.4.1,6.7,2.9,7.9,2.6,1.1,5.4-.1,7.2-3.3,0.7-1.2,1.3-2.5,1.9-3.7,7.2,0.9,10.8-2.5,10.9-10.3a18.93,18.93,0,0,0-3.6-11.2c-2.6-3.7-5.1-7.3-7.8-11.1,25.4-8.9,81.7,4,92.5,21.3-9.8-3.6-19.6-1.7-29.4-1.3-4.1.2-8.3-.2-12.4-0.4-1.2-.1-2.5-0.3-3.7-0.5a5.89,5.89,0,0,0-6,2.6c-1.4,2.3-.6,4.5.7,6.5a13.52,13.52,0,0,0,8.4,5.6c4.5,1.1,9,2.4,13.5,2.6,12.8,0.3,22.2,6.5,30.2,16,6.5,7.6,12.3,15.5,15.6,25.1a40.67,40.67,0,0,0,3.3,6.6c1.6,2.7,4,3.8,6.4,3.1a5.38,5.38,0,0,0,3.5-6.4c-0.9-4.7-2.3-9.2-3.5-13.8a40.08,40.08,0,0,1-1.4-4.5c1.1,1.2,2.4,2.3,3.4,3.6,12.5,15,24.5,30.3,32.4,48.4,4,9.2,5.5,19,5.8,29a108.79,108.79,0,0,1-7,41.1c-1,2.6-2.3,5.2-3.3,7.8-0.7,1.8-1.6,2.4-3.5,2.1-14.8-1.8-29.1.6-42.8,6.2a97.14,97.14,0,0,0-29.9,19.5A100.53,100.53,0,0,1,542,364.1a118.47,118.47,0,0,1-37.8,6.3,21.5,21.5,0,0,1-2.3-.2,11.61,11.61,0,0,1,.9-1.4c11-12.3,17.6-26.8,21.3-42.7,4.7-20,5.3-40.3,2.9-60.7-0.3-2.3-.5-4.6-0.9-6.8-0.6-3.5-2.8-5-6.3-4.1-6.1,1.5-12.2,3.1-18.2,4.7-4.3,1.1-6,3.4-5.4,7.8a16.55,16.55,0,0,1-4.4,13.4,43.15,43.15,0,0,0-8.7,15.3,19.6,19.6,0,0,0-.3,11.5c1.1,4,2.2,8,3,12.1,0.2,1.2,0,3.2-.8,3.8-4.9,3.9-9.5,8.2-16.1,10.8,0.8-3.7,1.6-6.9,2.3-10.2a45.51,45.51,0,0,0,.9-6.3c0.2-4.3-2.1-6.8-6.3-7.4-7-1.1-12,2.5-13,10-0.9,6.3-1.2,12.7-1.8,19-0.4,4.6-2.5,7-7.1,8.1-0.2-1.7-.5-3.3-0.6-4.9-0.7-8.7-5.3-15.2-11.7-20.7a63.12,63.12,0,0,0-6.3-5.3c-6.6-4.6-8-10.9-5.8-18,2.6-8.3,5.2-16.7,8.9-24.6,4.4-9.6,8.1-19.2,10.3-29.7,2.1-10.3,2.1-20-1-30-2.3-7.4-1.1-14.5,3.1-21.1a98.7,98.7,0,0,1,19.4-22.4,94.08,94.08,0,0,0,19-22.7,31.09,31.09,0,0,0,4.3-15.2C483.8,126.8,483.6,121.2,483.7,115.5Z" transform="translate(-137.68 -104.3)"/><ellipse class="cls-10" cx="471.55" cy="216.93" rx="18.4" ry="12.5" transform="translate(71.06 560.23) rotate(-84.29)"/><ellipse cx="469.23" cy="224.99" rx="8.7" ry="10.7" transform="translate(-164.34 -37.1) rotate(-7.97)"/><ellipse cx="433.03" cy="299.69" rx="4.2" ry="5.2" transform="translate(-175.04 -41.39) rotate(-7.97)"/><path class="cls-7" d="M488.6,373.1L403,347l-62.8,3c-10.4,11.7-20.8,23.5-31.1,35.2a60,60,0,0,0,20.8,22.3c24.7,15.3,51.9,5.7,55.8,4.2l-16.6-31.1,37.2-.1,93.5,53.3a128.07,128.07,0,0,0,47.1,5.6,126.43,126.43,0,0,0,38.9-9.1c9.8-5.5,30.4-15.3,57.1-13.9a100.2,100.2,0,0,1,28.2,5.6c9.4-35.6,13.2-81.2,7.4-132.8-1.2-10.2-12-47.8-12-47.8" transform="translate(-137.68 -104.3)"/><path class="cls-8" d="M342.3,352.2a31.29,31.29,0,0,0,7.2,20.3c7.6,8.9,18.9,8.8,20.7,8.9" transform="translate(-137.68 -104.3)"/><path class="cls-8" d="M512.7,346c-2.5,5.2-5.4,11.7-11.5,18.4a96.65,96.65,0,0,1-10.8,9.5" transform="translate(-137.68 -104.3)"/><path class="cls-11" d="M518,276.9A427.43,427.43,0,0,0,597.3,264c25.7-6.7,56.3-20.9,74.6-29.2,1,5.1,4.4,13.3,5.8,18.8,1.6,6.2,3.5,11.2,5.2,16.7-19,8.3-52,20.2-77,27.1a506.86,506.86,0,0,1-91.5,16.5A90.84,90.84,0,0,0,518,296,86.48,86.48,0,0,0,518,276.9Z" transform="translate(-137.68 -104.3)"/><path class="cls-11" d="M600.9,258.6c0,22.5-9.7,105.7-16.7,124.5,5.1,0.7,30.7-.1,36.3,1.2,7-19.5,17.8-111.7,18.3-138C634.1,248.1,606.1,258.8,600.9,258.6Z" transform="translate(-137.68 -104.3)"/></g></svg>